<svg width="163" height="768" viewBox="0 0 163 768" fill="none" xmlns="http://www.w3.org/2000/svg">
<g opacity="0.4">
<g filter="url(#filter0_f_6160_30295)">
<path d="M154.758 282.282L-500.762 80.6388M154.758 125.9L-88.4797 -172.999M154.758 73.771L-5.91131 -172.999M154.758 21.6477L49.1428 -173M154.758 178.029L-226.067 -173M154.758 -30.4811L88.4731 -173M154.758 -134.739L140.915 -173M154.758 -82.61L117.973 -173M154.758 699.304L88.353 842M154.758 334.41L-500.762 334.062M154.758 751.432L117.886 842M154.758 803.555L140.846 841.999M154.758 647.175L48.9818 842M154.758 595.046L-6.13362 842M154.758 490.793L-226.7 842M154.758 542.922L-88.8375 842M154.758 386.54L-500.762 587.489M154.758 230.153L-500.762 -172.784M154.758 438.664L-500.762 840.91L-500.763 -172.783M65.2974 841.998L65.2973 -172.999M125.29 841.998L125.29 -172.999M113.058 841.998L113.058 -172.999M99.2242 841.998L99.2242 -172.999M145.952 841.998L145.952 -172.999M136.185 841.998L136.185 -172.999M-327.23 841.998L-327.23 -172.999M44.1951 841.998L44.1951 -172.999M83.4459 841.998L83.4459 -172.999M154.758 841.999L154.758 -172.999M19.3548 841.998L19.3547 -172.999M-10.3212 841.998L-10.3213 -172.999M-223.497 841.998L-223.497 -172.999M-46.3934 841.998L-46.3934 -172.999M-91.1753 841.998L-91.1754 -172.999M-148.254 841.998L-148.254 -172.999" stroke="url(#paint0_linear_6160_30295)" stroke-width="0.704861" stroke-linecap="round" stroke-linejoin="round"/>
</g>
<path d="M154.758 282.282L-500.762 80.6388M154.758 125.9L-88.4797 -172.999M154.758 73.771L-5.91131 -172.999M154.758 21.6477L49.1428 -173M154.758 178.029L-226.067 -173M154.758 -30.4811L88.4731 -173M154.758 -134.739L140.915 -173M154.758 -82.61L117.973 -173M154.758 699.304L88.353 842M154.758 334.41L-500.762 334.062M154.758 751.432L117.886 842M154.758 803.555L140.846 841.999M154.758 647.175L48.9818 842M154.758 595.046L-6.13362 842M154.758 490.793L-226.7 842M154.758 542.922L-88.8375 842M154.758 386.54L-500.762 587.489M154.758 230.153L-500.762 -172.784M154.758 438.664L-500.762 840.91L-500.763 -172.783M65.2974 841.998L65.2973 -172.999M125.29 841.998L125.29 -172.999M113.058 841.998L113.058 -172.999M99.2242 841.998L99.2242 -172.999M145.952 841.998L145.952 -172.999M136.185 841.998L136.185 -172.999M-327.23 841.998L-327.23 -172.999M44.1951 841.998L44.1951 -172.999M83.4459 841.998L83.4459 -172.999M154.758 841.999L154.758 -172.999M19.3548 841.998L19.3547 -172.999M-10.3212 841.998L-10.3213 -172.999M-223.497 841.998L-223.497 -172.999M-46.3934 841.998L-46.3934 -172.999M-91.1753 841.998L-91.1754 -172.999M-148.254 841.998L-148.254 -172.999" stroke="url(#paint1_linear_6160_30295)" stroke-width="0.704861" stroke-linecap="round" stroke-linejoin="round"/>
</g>
<defs>
<filter id="filter0_f_6160_30295" x="-508.166" y="-180.401" width="670.324" height="1029.8" filterUnits="userSpaceOnUse" color-interpolation-filters="sRGB">
<feFlood flood-opacity="0" result="BackgroundImageFix"/>
<feBlend mode="normal" in="SourceGraphic" in2="BackgroundImageFix" result="shape"/>
<feGaussianBlur stdDeviation="3.52431" result="effect1_foregroundBlur_6160_30295"/>
</filter>
<linearGradient id="paint0_linear_6160_30295" x1="-113.442" y1="334.5" x2="374.674" y2="334.5" gradientUnits="userSpaceOnUse">
<stop stop-color="#FFED4C" stop-opacity="0.4"/>
<stop offset="0.1" stop-color="#FFED4C" stop-opacity="0.6"/>
<stop offset="0.5" stop-color="#121212" stop-opacity="0.1"/>
<stop offset="0.6222" stop-color="#121212"/>
</linearGradient>
<linearGradient id="paint1_linear_6160_30295" x1="-113.442" y1="334.5" x2="374.674" y2="334.5" gradientUnits="userSpaceOnUse">
<stop stop-color="#FFED4C" stop-opacity="0.4"/>
<stop offset="0.1" stop-color="#FFED4C" stop-opacity="0.6"/>
<stop offset="0.5" stop-color="#121212" stop-opacity="0.1"/>
<stop offset="0.6222" stop-color="#121212"/>
</linearGradient>
</defs>
</svg>
