<svg width="465" height="890" viewBox="0 0 465 890" fill="none" xmlns="http://www.w3.org/2000/svg">
<g opacity="0.4" clip-path="url(#clip0_6160_28538)">
<g filter="url(#filter0_f_6160_28538)">
<path d="M465 167.918L-464.999 -118.158M465 -53.9451L119.914 -477.999M465 -127.901L237.056 -477.999M465 -201.85L315.162 -478M465 20.0122L-75.2828 -478M465 -275.806L370.961 -478M465 -423.718L445.361 -478M465 -349.762L412.813 -478M465 759.554L370.79 962M465 241.873L-464.999 241.378M465 833.51L412.69 962M465 907.457L445.263 961.998M465 685.598L314.934 962M465 611.641L236.74 962M465 463.736L-76.182 962M465 537.692L119.407 962M465 315.83L-464.998 600.92M465 93.9607L-464.999 -477.693M465 389.78L-464.998 960.454L-465 -477.692M338.081 961.998L338.081 -477.999M423.194 961.998L423.194 -477.999M405.84 961.998L405.84 -477.999M386.213 961.998L386.213 -477.999M452.507 961.998L452.507 -477.999M438.651 961.998L438.651 -477.999M-218.805 961.998L-218.805 -477.999M308.143 961.998L308.143 -477.999M363.828 961.998L363.828 -477.999M465 961.998L465 -477.999M272.901 961.998L272.901 -477.999M230.799 961.998L230.799 -477.999M-71.6373 961.998L-71.6373 -477.999M179.623 961.998L179.623 -477.999M116.09 961.998L116.09 -477.999M35.1116 961.998L35.1115 -477.999" stroke="url(#paint0_linear_6160_28538)" stroke-linecap="round" stroke-linejoin="round"/>
</g>
<path d="M465 167.918L-464.999 -118.158M465 -53.9451L119.914 -477.999M465 -127.901L237.056 -477.999M465 -201.85L315.162 -478M465 20.0122L-75.2828 -478M465 -275.806L370.961 -478M465 -423.718L445.361 -478M465 -349.762L412.813 -478M465 759.554L370.79 962M465 241.873L-464.999 241.378M465 833.51L412.69 962M465 907.457L445.263 961.998M465 685.598L314.934 962M465 611.641L236.74 962M465 463.736L-76.182 962M465 537.692L119.407 962M465 315.83L-464.998 600.92M465 93.9607L-464.999 -477.693M465 389.78L-464.998 960.454L-465 -477.692M338.081 961.998L338.081 -477.999M423.194 961.998L423.194 -477.999M405.84 961.998L405.84 -477.999M386.213 961.998L386.213 -477.999M452.507 961.998L452.507 -477.999M438.651 961.998L438.651 -477.999M-218.805 961.998L-218.805 -477.999M308.143 961.998L308.143 -477.999M363.828 961.998L363.828 -477.999M465 961.998L465 -477.999M272.901 961.998L272.901 -477.999M230.799 961.998L230.799 -477.999M-71.6373 961.998L-71.6373 -477.999M179.623 961.998L179.623 -477.999M116.09 961.998L116.09 -477.999M35.1116 961.998L35.1115 -477.999" stroke="url(#paint1_linear_6160_28538)" stroke-linecap="round" stroke-linejoin="round"/>
</g>
<defs>
<filter id="filter0_f_6160_28538" x="-475.5" y="-488.5" width="951" height="1461" filterUnits="userSpaceOnUse" color-interpolation-filters="sRGB">
<feFlood flood-opacity="0" result="BackgroundImageFix"/>
<feBlend mode="normal" in="SourceGraphic" in2="BackgroundImageFix" result="shape"/>
<feGaussianBlur stdDeviation="5" result="effect1_foregroundBlur_6160_28538"/>
</filter>
<linearGradient id="paint0_linear_6160_28538" x1="84.5" y1="242" x2="777" y2="242" gradientUnits="userSpaceOnUse">
<stop stop-color="#FFED4C" stop-opacity="0.4"/>
<stop offset="0.1" stop-color="#FFED4C" stop-opacity="0.6"/>
<stop offset="0.5" stop-color="#121212" stop-opacity="0.1"/>
<stop offset="0.6222" stop-color="#121212"/>
</linearGradient>
<linearGradient id="paint1_linear_6160_28538" x1="84.5" y1="242" x2="777" y2="242" gradientUnits="userSpaceOnUse">
<stop stop-color="#FFED4C" stop-opacity="0.4"/>
<stop offset="0.1" stop-color="#FFED4C" stop-opacity="0.6"/>
<stop offset="0.5" stop-color="#121212" stop-opacity="0.1"/>
<stop offset="0.6222" stop-color="#121212"/>
</linearGradient>
<clipPath id="clip0_6160_28538">
<rect width="1440" height="930" fill="white" transform="translate(465 -478) rotate(90)"/>
</clipPath>
</defs>
</svg>
