<svg width="478" height="890" viewBox="0 0 478 890" fill="none" xmlns="http://www.w3.org/2000/svg">
<g opacity="0.4" clip-path="url(#clip0_6160_28535)">
<g filter="url(#filter0_f_6160_28535)">
<path d="M136 167.918L1066 -118.158M136 -53.9451L481.086 -477.999M136 -127.901L363.944 -477.999M136 -201.85L285.838 -478M136 20.0122L676.283 -478M136 -275.806L230.039 -478M136 -423.718L155.639 -478M136 -349.762L188.187 -478M136 759.554L230.21 962M136 241.873L1066 241.378M136 833.51L188.31 962M136 907.457L155.737 961.998M136 685.598L286.066 962M136 611.641L364.26 962M136 463.736L677.182 962M136 537.692L481.593 962M136 315.83L1066 600.92M136 93.9607L1066 -477.693M136 389.78L1066 960.454L1066 -477.692M262.919 961.998L262.919 -477.999M177.806 961.998L177.806 -477.999M195.16 961.998L195.16 -477.999M214.787 961.998L214.787 -477.999M148.493 961.998L148.493 -477.999M162.349 961.998L162.349 -477.999M819.805 961.998L819.805 -477.999M292.857 961.998L292.857 -477.999M237.172 961.998L237.172 -477.999M136 961.998L136 -477.999M328.099 961.998L328.099 -477.999M370.201 961.998L370.201 -477.999M672.637 961.998L672.637 -477.999M421.377 961.998L421.377 -477.999M484.91 961.998L484.91 -477.999M565.888 961.998L565.888 -477.999" stroke="url(#paint0_linear_6160_28535)" stroke-linecap="round" stroke-linejoin="round"/>
</g>
<path d="M-2.8234e-05 167.918L929.999 -118.158M1.48109e-05 -53.9451L345.086 -477.999M1.80437e-05 -127.901L227.944 -477.999M-1.20709e-05 -201.85L149.838 -478M-2.17688e-05 20.0122L540.283 -478M-8.83819e-06 -275.806L94.0395 -478M-2.37274e-06 -423.718L19.639 -478M-5.60546e-06 -349.762L52.1869 -478M-5.40952e-05 759.554L94.2098 962M-3.14666e-05 241.873L929.999 241.378M-5.73279e-05 833.51L52.3102 962M-6.05603e-05 907.457L19.7368 961.998M-5.08625e-05 685.598L150.066 962M-4.76297e-05 611.641L228.26 962M-4.11646e-05 463.736L541.182 962M-4.43973e-05 537.692L345.593 962M-3.46994e-05 315.83L929.998 600.92M-2.50012e-05 93.9607L929.999 -477.693M-3.79318e-05 389.78L929.998 960.454L930 -477.692M126.919 961.998L126.919 -477.999M41.8064 961.998L41.8065 -477.999M59.1599 961.998L59.16 -477.999M78.7866 961.998L78.7866 -477.999M12.493 961.998L12.4931 -477.999M26.3494 961.998L26.3495 -477.999M683.805 961.998L683.805 -477.999M156.857 961.998L156.857 -477.999M101.172 961.998L101.172 -477.999M-6.29443e-05 961.998L0 -477.999M192.099 961.998L192.099 -477.999M234.201 961.998L234.201 -477.999M536.637 961.998L536.637 -477.999M285.377 961.998L285.377 -477.999M348.91 961.998L348.91 -477.999M429.888 961.998L429.888 -477.999" stroke="url(#paint1_linear_6160_28535)" stroke-linecap="round" stroke-linejoin="round"/>
</g>
<defs>
<filter id="filter0_f_6160_28535" x="125.5" y="-488.5" width="951" height="1461" filterUnits="userSpaceOnUse" color-interpolation-filters="sRGB">
<feFlood flood-opacity="0" result="BackgroundImageFix"/>
<feBlend mode="normal" in="SourceGraphic" in2="BackgroundImageFix" result="shape"/>
<feGaussianBlur stdDeviation="5" result="effect1_foregroundBlur_6160_28535"/>
</filter>
<linearGradient id="paint0_linear_6160_28535" x1="516.5" y1="242" x2="-176" y2="242" gradientUnits="userSpaceOnUse">
<stop stop-color="#FFED4C" stop-opacity="0.4"/>
<stop offset="0.1" stop-color="#FFED4C" stop-opacity="0.6"/>
<stop offset="0.5" stop-color="#121212" stop-opacity="0.1"/>
<stop offset="0.6222" stop-color="#121212"/>
</linearGradient>
<linearGradient id="paint1_linear_6160_28535" x1="380.5" y1="242" x2="-312" y2="242" gradientUnits="userSpaceOnUse">
<stop stop-color="#FFED4C" stop-opacity="0.4"/>
<stop offset="0.1" stop-color="#FFED4C" stop-opacity="0.6"/>
<stop offset="0.5" stop-color="#121212" stop-opacity="0.1"/>
<stop offset="0.6222" stop-color="#121212"/>
</linearGradient>
<clipPath id="clip0_6160_28535">
<rect width="1440" height="1066" fill="white" transform="matrix(-4.37114e-08 1 1 4.37114e-08 0 -478)"/>
</clipPath>
</defs>
</svg>
